<?xml version="1.0" encoding="utf-8"?>
<!-- Generator: Adobe Illustrator 22.1.0, SVG Export Plug-In . SVG Version: 6.00 Build 0)  -->
<svg version="1.1" id="Layer_1" xmlns="http://www.w3.org/2000/svg" xmlns:xlink="http://www.w3.org/1999/xlink" x="0px" y="0px"
	 viewBox="0 0 70 39" style="enable-background:new 0 0 70 39;" xml:space="preserve">
<style type="text/css">
	.st0{fill:#AD963C;}
</style>
<g>
	<path class="st0" d="M59.6,38.3h0.5c0,0,0.1,0,0.1,0c0,0,0,0,0-0.1v-3.3c0-0.1,0-0.1-0.1-0.1h-0.4c-0.1,0-0.1,0-0.2,0.1l-0.5,0.3
		c-0.1,0-0.1,0.1-0.1,0.1v0.4c0,0.1,0,0.1,0.1,0.1l0.5-0.3v2.6C59.5,38.2,59.5,38.3,59.6,38.3z"/>
	<path class="st0" d="M62.9,38c0.2-0.1,0.2-0.4,0.2-0.6v-0.2c0-0.3-0.1-0.6-0.4-0.7c0.1,0,0.2-0.1,0.3-0.2c0.1-0.1,0.1-0.3,0.1-0.4
		v-0.2c0-0.3-0.1-0.5-0.2-0.6c-0.2-0.1-0.4-0.2-0.7-0.2h-0.6c-0.3,0-0.5,0.1-0.7,0.2c-0.2,0.1-0.2,0.4-0.2,0.6v0.2
		c0,0.3,0.1,0.6,0.4,0.7c-0.2,0.1-0.4,0.3-0.4,0.7v0.2c0,0.3,0.1,0.5,0.2,0.6c0.2,0.1,0.4,0.2,0.7,0.2h0.6
		C62.6,38.3,62.8,38.2,62.9,38z M61.5,35.7c0-0.1,0-0.2,0.1-0.2s0.1-0.1,0.2-0.1h0.4c0.1,0,0.2,0,0.2,0.1s0.1,0.1,0.1,0.2v0.2
		c0,0.1,0,0.2-0.1,0.3s-0.1,0.1-0.2,0.1h-0.4c-0.1,0-0.2,0-0.2-0.1s-0.1-0.1-0.1-0.3V35.7z M61.8,37.7c-0.1,0-0.2,0-0.2-0.1
		s-0.1-0.1-0.1-0.2v-0.2c0-0.1,0-0.2,0.1-0.3c0-0.1,0.1-0.1,0.2-0.1h0.4c0.1,0,0.2,0,0.2,0.1c0,0.1,0.1,0.1,0.1,0.3v0.2
		c0,0.1,0,0.2-0.1,0.2s-0.1,0.1-0.2,0.1H61.8z"/>
	<path class="st0" d="M65.2,37.6c0,0-0.1,0.1-0.2,0.1h-1c-0.1,0-0.1,0-0.1,0.1v0.4c0,0.1,0,0.1,0.1,0.1h1.1c0.3,0,0.5-0.1,0.7-0.2
		c0.2-0.2,0.2-0.4,0.2-0.7v-1.7c0-0.3-0.1-0.5-0.2-0.7c-0.2-0.2-0.4-0.2-0.7-0.2h-0.5c-0.3,0-0.5,0.1-0.7,0.2
		c-0.2,0.2-0.2,0.4-0.2,0.7v0.5c0,0.3,0.1,0.5,0.2,0.6c0.2,0.2,0.4,0.2,0.7,0.2h0.7v0.3C65.3,37.5,65.3,37.5,65.2,37.6z M64.7,36.4
		c-0.1,0-0.2,0-0.2-0.1c0,0-0.1-0.1-0.1-0.2v-0.4c0-0.1,0-0.2,0.1-0.2c0,0,0.1-0.1,0.2-0.1H65c0.1,0,0.2,0,0.2,0.1
		c0,0,0.1,0.1,0.1,0.2v0.7H64.7z"/>
	<path class="st0" d="M68.1,38.3h0.4c0,0,0.1,0,0.1,0c0,0,0,0,0-0.1v-0.5H69c0.1,0,0.1,0,0.1-0.1v-0.4c0-0.1,0-0.1-0.1-0.1h-0.4V35
		c0-0.1,0-0.1-0.1-0.1c0,0-0.1-0.1-0.1-0.1h-0.6c-0.1,0-0.1,0-0.1,0c0,0-0.1,0.1-0.1,0.1l-1.1,2c0,0.1-0.1,0.2-0.1,0.3v0.2
		c0,0.1,0,0.1,0.1,0.1c0,0,0.1,0.1,0.1,0.1H68v0.5C68,38.2,68,38.3,68.1,38.3z M67.1,37l0.9-1.7V37H67.1z"/>
	<path class="st0" d="M6.9,36.1c0.1,0,0.2,0,0.3,0c0.9-0.1,1.8-0.4,2.5-1c0.7-0.5,1.2-1.1,1.6-1.8c0.7-1.1,0.6-2.9-0.2-4
		c-0.3-0.6-0.8-1-1.5-1.3c-0.5-0.2-1-0.3-1.6-0.4c-0.3,0-0.7,0.1-0.9,0.2c-1,0.4-1.7,1.2-2,2.2c-0.3,1,0.3,1.8,0.9,2.4
		c0.3,0.2,0.7,0.4,1.1,0.4c0.1,0,0.3,0,0.4-0.1c0.2-0.2,0.6-0.7,0.3-1.1c-0.1-0.2-0.3-0.3-0.5-0.4c-0.1,0-0.1-0.1-0.2-0.1
		c-0.4-0.2-0.6-0.5-0.5-1.1c0-0.3,0.2-0.5,0.5-0.6c0.2-0.2,0.5-0.3,0.7-0.3c0.7-0.2,1.4,0.1,1.8,0.6c0.1,0.1,0.2,0.2,0.2,0.2
		c0.6,0.9,0.5,2.1,0,3c-0.1,0.1-0.1,0.2-0.2,0.3c-0.6,0.8-1.6,1.4-2.5,1.5c-0.4,0-0.8,0-1.2-0.1c-2.6-0.8-3.5-2.5-3.4-5.1
		c0.1-2,1.9-3.7,3.5-4.7c0.2-0.2,0.7-0.3,1-0.5c0.4-0.2,0.7-0.5,0.6-1c-0.1-0.2-0.3-0.5-0.6-0.6c-0.1,0-0.2,0-0.3,0
		c-4.2,2.4-5.6,4.8-5.7,7c0,0,0,0,0,0.1v0.3C1.2,33.6,4.1,36.2,6.9,36.1z"/>
	<path class="st0" d="M31.3,33.4c-0.7-0.7-1.4-1.4-2.1-2c-0.7-0.6-1.4-1.2-2.2-1.6c-0.4-0.2-0.8-0.3-1.2,0.1
		c-0.2,0.8-0.3,1.7-0.3,2.5c0,0.4,0,0.8,0,1.3c0,1,0.2,1.9,0.4,2.8c0.1,0.5,0.8,0.5,1.2,0.5c0.2,0,0.5-0.1,0.5-0.4
		C27.1,35.8,27,35,27,34.2c0-0.7,0-1.5-0.1-2.1c0-0.3,0.5-0.5,0.7-0.3c0.5,0.5,1.1,1,1.6,1.5c0.3,0.3,0.6,0.6,0.9,0.9
		c0.7,0.8,1.4,1.7,1.8,2.6c0.3,0.2,0.9,0.1,1-0.3c0.3-1.6,0-3.1-0.1-4.6c-0.1-0.4-0.6-0.6-1-0.6c-0.5,0.1-0.6,0.3-0.6,0.6
		c0.1,0.5,0.5,1.1,0.2,1.6C31.4,33.4,31.4,33.4,31.3,33.4z"/>
	<path class="st0" d="M17.3,35.7c0.6,0.2,1.2,0.2,1.8,0.1c2.5-0.5,3.2-2.8,3.4-5c0.1-1.3,0.1-2.6,0.8-3.7c0.1-0.1,0.2-0.3,0.3-0.4
		c0.1-0.2-0.1-0.7-0.3-0.9c-0.3-0.2-0.5-0.5-0.9-0.3c-0.7,1-1,2.1-1.2,3.3c-0.3,1.9,0,5.5-2.6,5.7c-0.4,0-0.9-0.1-1.3-0.3
		c-0.5-0.3-0.9-0.7-1.2-1.2c-0.8-2.5,0-5.8-1.2-8.1c-0.3-1-1.2-0.6-1.8-0.1c-0.1,0.4,0.2,0.6,0.5,0.9c1.3,2.5,0.2,5.8,1.4,8.4
		C15.5,34.9,16.4,35.4,17.3,35.7z"/>
	<path class="st0" d="M50.9,28.7c0.5-0.3,1.1-0.4,1.7-0.5c0.3-0.1,0.4-0.5,0.3-0.7c-0.1-0.2-0.2-0.3-0.5-0.4c-0.5,0-1,0.1-1.5,0.3
		c-1.5,0.5-2.8,1.6-3.4,3.1c-0.4,1-0.3,2.5,0.5,3.1c0.7,0.9,1.8,1.3,3,1.4c0.5,0,1-0.1,1.5-0.3c0.9-0.4,1.8-0.7,2.1-1.6
		c-0.1-0.3-0.3-0.9-0.9-0.7c-0.8,0.7-1.9,1.2-2.9,1.2c-0.7-0.1-1.7-0.2-1.8-1c0.5-0.4,1.2-0.6,1.9-0.7c0.6-0.1,1.1-0.3,1.6-0.5
		c0.2-0.3-0.1-0.6-0.2-0.9c-0.4-0.2-0.9-0.2-1.4-0.1c-0.2,0.1-0.4,0.1-0.6,0.2c-0.8,0.3-1.8,0.9-1.6,0.3
		C49.1,29.8,49.9,29.1,50.9,28.7z"/>
	<path class="st0" d="M39.2,27l0.1,6.1c0.1,0.4,0.2,1,0.7,1.2c0.2,0,0.4,0,0.6,0c0.7,0,1.4-0.3,2-0.6c0.3-0.1,0.6-0.3,0.9-0.4l0.1,0
		c1.1-0.6,1.7-1.7,1.8-2.8c0-0.9-0.3-1.8-1-2.4c-0.3-0.3-0.6-0.5-0.9-0.7c-0.3-0.2-0.6-0.3-0.9-0.4c-0.7-0.3-1.4-0.6-2-0.9
		c-0.3-0.2-0.7-0.3-1-0.5c-0.2-0.1-0.4-0.4-0.6-0.5c-0.1-0.1-0.3-0.2-0.5-0.1c-0.3,0.1-0.4,0.4-0.6,0.7c-0.2,0.9,0.5,0.9,1.1,1.2
		C39,26.9,39.1,26.9,39.2,27z M40.5,29.2l0-1.6c0.6,0.2,1.4,0.4,2,0.7c0.3,0.2,0.6,0.4,0.9,0.7c0.1,0.2,0.2,0.3,0.3,0.5
		c0.3,0.7,0.1,1.5-0.3,2c0,0-0.1,0.1-0.1,0.1c-0.1,0.1-0.4,0.3-0.8,0.5c-0.7,0.4-1.7,0.8-2,0.5c0,0,0,0-0.1-0.1L40.5,29.2z"/>
	<path class="st0" d="M46.3,38.2c0.3,0,0.6,0,0.8,0c1.3,0,2.6-0.2,3.8-0.5c2.9-0.7,5.4-2.2,7.5-4.7c0-0.1,0.1-0.1,0.2-0.2
		c0.3-0.4,1-1.2,1.7-2.2c0.5,0.2,1.1,0.2,1.7,0.1c3.2-0.2,5.5-2,6.8-4.8c0.1-0.1,0.1-0.3,0.1-0.4v-0.1c0-0.3-0.2-0.6-0.5-0.7
		c-1.1-0.3-0.8,0.8-1.3,1.4c-1.1,2.2-3.5,3.7-6.1,3.3l0.1-0.4c0.6-1.3,0.6-2.7,0.4-4.2c-0.3-1.6-1-3.1-2.6-3.5l6.3,0
		c0.6,0,0.5-1.3,0-1.3l-4,0l-0.4-0.1c0.7-2,1.3-4.4,0.7-6.5c-1.7-1.3,0.7-2.7,0-4.4c0-0.4-0.4-0.7-0.1-1.1c0.7-0.1,0.8,0.6,1.1,0.9
		c1.5,2-1.1,4.4,0.8,6.1c0.3,0,0.7,0.6,1,0.1c-0.9-1.3-1.1-3.1-0.8-4.6c0-1.5-0.5-3-1.2-4c-1.1-1.6-2.4-2.8-3.9-3.8
		c-1.7-1-3.6-1.6-5.8-1.6c-0.6,0-1.1,0-1.7,0.1c-1.6,0.2-3.2,0.6-4.6,0.9c0,0,0,0,0,0c-1.2,0.5-2-0.1-2.9-0.6
		c-0.3-0.2-0.6-0.3-0.9-0.5c-0.2-0.1-0.4-0.1-0.6-0.2c-0.5-0.2-1-0.2-1.5-0.1c-0.6,0.1-1.1,0.3-1.6,0.6c-0.5,0.3-0.9,0.6-1.3,1
		c-1.5,1.5-0.9,3.8-1.3,5.7c-0.9,1.8-0.7,4.6,0.7,6c0.5,0.5,1.1,0.8,1.8,1c0.5,0.1,1.1,0.2,1.6,0.2c0.2,0,0.5,0,0.7,0l0.1,0.5
		c-0.1,0.3-0.3,0.7-0.5,1c-0.3,0.6-0.2,1.5-0.3,2.2c-0.1,0.5-0.3,0.9-0.8,1.1h-0.8h-5.4h-4.4h-0.7c-0.8-0.4-1.1-1.2-1.1-2
		c-0.2-0.7-0.1-1.4-0.6-2c-0.1-0.3-0.2-0.7,0.1-0.9c0.8,0.1,1.6,0,2.3-0.2c0.7-0.2,1.4-0.6,2-1.2c1.3-1.2,1.4-3.3,0.9-4.9
		c-0.2-0.9-0.4-1.8-0.5-2.7c-0.1-1.5,0.1-2.3-0.9-3.5c-0.4-0.5-0.9-0.9-1.5-1.2c-0.2-0.1-0.4-0.2-0.6-0.3c-1.1-0.4-2.2-0.3-3.2,0.1
		c-0.7,0.3-1.3,0.6-1.8,1c-0.1,0-0.2,0-0.3,0c-1.7,0.1-3.2-0.5-4.9-0.7c-0.3-0.1-0.7-0.1-1.1-0.2c-2.7-0.3-5.5,0.3-7.6,1.7
		c-0.1,0-0.2,0.1-0.3,0.2c-0.8,0.6-1.6,1.3-2.3,2C6.3,6,5.7,6.9,5.3,8.1c-1.1,1.8-0.1,4.2-0.8,6.1c-0.2,0.4-0.6,0.7-0.5,1.1
		c1.1-0.1,1.5-0.6,1.6-1.2c0.3-1.4-0.9-3.6,0-4.9c0.3-0.4,0.5-0.8,0.9-1C6.8,8,7,8.4,6.9,8.6C6.5,9.7,6.8,10.9,7.1,12
		c0.1,0.2,0.1,0.4,0.2,0.6c-0.1,0.1-0.1,0.1-0.2,0.2c-0.9,1.1-0.6,2.9-0.6,4.4c0.1,0.7,0.4,1.2,0.6,1.7c0.1,0.3,0.2,0.6,0.2,1H7.1
		l-4.2,0c-0.6,0-0.7,1.3,0,1.3l4.2,0h2.5l7.6,0h6h2.2l3.8,0h4.4l5.4,0h1.6h2h0.9h2.9l4.6,0h6.6c-0.8,0.4-1.5,1-1.8,1.8
		c-1.2,2.4,0.1,5.2,1.7,6.8h0.3c0.4-0.2,0.7-0.5,0.7-1c-1-0.8-1.5-1.9-1.8-3.2c-0.3-1.2,0.1-2.6,1.1-3.1c0.3-0.1,0.5-0.1,0.8-0.1
		c0.4,0.1,0.7,0.3,1,0.6c1.1,1.6,0.7,3.7,0.3,5.4c-0.3,0.9-0.8,1.7-1.3,2.4c-1.3,1.9-3,3.4-5.1,4.4c-0.7,0.4-1.6,0.7-2.4,1
		c-1.3,0.3-2.6,0.5-4,0.6c-0.2,0-0.4,0-0.6,0c-1,0-2-0.2-2.9-0.5c-0.3-0.1-0.6-0.2-0.9-0.3c-0.7-0.3-1.4-0.6-2-0.9
		c-0.6-0.3-1.1-0.7-1.6-1c-1.8-1.3-3.5-2.9-5.4-4.4c-0.7-0.6-1.4-1.1-2.1-1.7c-0.7-0.6-1.5-1.1-2.3-1.6c-1.2-0.8-2.5-1.5-3.8-2.1
		c-0.7-0.3-1.4-0.7-2.2-1c-0.2-0.1-0.3-0.1-0.5-0.2c-1-0.4-3.1-1-5.5-1.4c-2.6-0.4-5.4-0.6-7.6,0c-0.4,0.1-0.7,0.2-1,0.4
		c0,0.4,0.3,0.7,0.5,0.9c0.2,0,0.3-0.1,0.5-0.1c2.4-0.5,5-0.5,7.6,0c2,0.4,4,1,6,1.8c0.7,0.3,1.4,0.6,2,0.9c0,0,0.1,0,0.1,0.1
		c1.4,0.7,2.6,1.5,3.8,2.3c1.5,1.1,2.9,2.3,4.4,3.6c1.2,1,2.3,2,3.6,2.9c0.6,0.4,1.2,0.9,1.8,1.2c0.5,0.3,1.1,0.6,1.6,0.9
		c0.7,0.3,1.3,0.6,2,0.8c0.3,0.1,0.6,0.2,0.9,0.3C44.4,38.1,45.3,38.2,46.3,38.2z M29,5.8c0,0,0.1,0,0.2,0c0.3,0,0.6,0.2,0.7,0.5
		c0.1,0.4-0.1,0.9-0.4,1c-0.1,0-0.2,0-0.2,0c-0.3,0-0.5-0.2-0.7-0.4C28.3,6.4,28.7,5.8,29,5.8z M9.7,19.2
		C9.7,19.2,9.7,19.2,9.7,19.2c-0.5-1.1-0.8-2.2-0.8-3.5c0.1-0.1,0.3-0.4,0.6-0.3c-0.1,0.6,0,1.1,0.2,1.6c0.2,0.9,0.6,1.6,0.8,2.5
		C10.1,19.7,9.9,19.4,9.7,19.2z M22.8,19.9l-5.6,0l-3.7,0c-1.1-0.8-2.2-1.7-1.8-3.2c0.5-0.6,1.1-1,1.5-1.7c0.8,0.4,2.4,0.9,4,0.8
		c0.8-0.1,1.6-0.3,2.2-0.9c0.9-0.2,1.1,0.7,1.6,1.1C22,17,23.1,18.3,22.8,19.9z M23.2,11.7c-0.1-0.2-0.3-0.3-0.4-0.5
		c-1.3-1.7-2.4-3.8-2-6.2c0.1-1,0.9-2,2.1-2.2c0.1,0,0.2,0,0.3,0c0.6,0,1.1,0.1,1.6,0.5c0.3,0.3,0.2,0.7,0.1,1
		c-0.1,0.3-0.6,0.7-1.1,0.4c-0.3-0.1-0.3-0.6-0.6-0.7c-0.1-0.1-0.3-0.1-0.5,0c-1,0.8-1.1,2.3-0.9,3.6c0.2,1.1,0.8,2.1,1.4,3.1
		c0.2,0.3,0.4,0.6,0.5,0.9c0.5-0.2,0.2-1,0.5-1.4c0.2-0.4,0.3-0.7,0.8-0.8c0.1,0.1,0.2,0.1,0.3,0.2c0.1,0.1,0.1,0.2,0.1,0.3
		c0,0-0.1,0.1-0.1,0.1c-0.5,0.4-0.8,0.8-0.9,1.4c-0.2,0.6,0.3,0.9,0.1,1.4C23.9,12.8,23.6,12.2,23.2,11.7z M25.7,19.8
		c-0.1,0.1-0.2,0.1-0.3,0c-0.2-0.1-0.3-0.4-0.4-0.6c-0.1-1.3-0.4-2.3-1.1-3.4l0.1-0.3c0.6-0.1,0.7,0.5,0.9,0.9
		c0.2,0.4,0.3,0.8,0.5,1.2C25.7,18.3,25.8,19,25.7,19.8z M25.4,12.2c-0.1-0.2-0.1-0.3-0.1-0.5c0-0.3,0-0.5,0.1-0.7
		c0.1-0.2,0.2-0.4,0.4-0.6c0.5-0.5,1.4-0.4,1.9,0c0.1,0.2,0.2,0.4,0.1,0.7c-0.2,0.2-0.4,0.2-0.7,0.2c-0.2-0.3-0.4-0.5-0.8-0.4
		c-0.2,0.1-0.4,0.2-0.4,0.5c0,0.3,0.1,0.7,0.4,0.9c0.4,0.2,0.9,0.4,1.4,0.2c0.7-0.3,1.2-0.9,1.5-1.5c0.1-0.2,0.2-0.4,0.2-0.6
		c0.2-0.2,0.5-0.3,0.7-0.1c0.4,0.3,0.5,0.7,0.3,1.3c-0.2,0.6-0.7,1.1-1.3,1.3c-0.1,0-0.1,0.1-0.2,0.1c-0.8,0.3-1.7,0.6-2.6,0.3
		C26,13,25.6,12.7,25.4,12.2z M42.5,9.4C42.5,9.4,42.6,9.4,42.5,9.4c0.2-0.3,0.5-0.2,0.7-0.2c0.1,0.1,0.2,0.2,0.2,0.3
		c0.4,0.6,0.5,1.3,0.7,2c1.4-2,2.8-4.6,1.7-7c-0.1-0.2-0.3-0.7-0.7-0.7c-0.3,0-0.5,0-0.7,0.3c0,0.4-0.3,0.5-0.6,0.6
		c-0.2,0-0.3-0.1-0.5-0.2c-0.1-0.1-0.3-0.2-0.3-0.3c-0.2-0.4,0-0.8,0.3-1.2c0.1-0.1,0.2-0.2,0.3-0.3c0.8-0.1,1.8-0.1,2.5,0.4
		c0.3,0.2,0.5,0.4,0.6,0.8c0.5,1.9,0.2,3.7-0.6,5.3c-0.6,1.2-1.5,2.3-2.4,3.3c-0.2,0.2-0.4,0.2-0.4,0c0-0.3,0-0.6,0-0.8v-0.6
		c0-0.6-0.2-1.1-0.9-1.3c0,0,0,0,0,0C42.5,9.8,42.4,9.5,42.5,9.4z M38.2,6.1c0.2-0.3,0.3-0.4,0.6-0.4c0,0,0.1,0,0.1,0
		c0.7,0,1.1,0.9,0.4,1.3c-0.1,0.1-0.2,0.1-0.4,0.1c-0.2,0-0.4-0.1-0.5-0.2C38.2,6.8,38.1,6.4,38.2,6.1z M40.6,13.3
		c-0.6,0.1-1.2-0.1-1.7-0.4c-0.4-0.3-0.8-0.7-1.1-1.2c-0.3-0.4-0.3-0.9-0.2-1.3c0.2-0.2,0.4-0.4,0.7-0.3c0.2,0.2,0.3,0.5,0.5,0.8
		c0.4,0.7,0.9,1.4,1.6,1.5c0.2,0,0.4,0,0.7,0c0.3-0.1,0.7-0.3,0.8-0.7c0.2-0.3,0-0.9-0.4-1c-0.6-0.3-0.8,0.6-1.2,0.5
		c-0.1,0-0.2-0.1-0.2-0.2c-0.2-0.3-0.1-0.7,0.3-1c0.7-0.1,1.5,0.1,1.9,0.7c0,0,0,0,0,0.1c0.1,0.4,0.1,1,0,1.4c0,0,0,0,0,0.1
		C42.2,13,41.3,13.3,40.6,13.3z M43.4,17.2c-0.2,0.7-0.4,1.4-0.4,2.1c-0.1,0.3-0.1,0.6-0.4,0.7c0,0-0.1,0-0.1,0
		c-0.2,0-0.3-0.1-0.3-0.2c0-0.5,0.2-1.4,0.5-2.2c0.3-0.7,0.6-1.4,0.9-1.8c0,0,0-0.1,0.1-0.1c0.2,0,0.5,0,0.5,0.2
		C43.8,16.3,43.6,16.8,43.4,17.2z M55.5,19.1c-0.2,0.3-0.5,0.5-0.9,0.8h-3.7h-4.6h-1.1c-0.4-0.4-0.1-1.1,0.1-1.6
		c0.2-0.7,0.6-1.2,1-1.7c0.5-0.6,1.1-1.1,1.7-1.7c0.9,0.3,1.9,0.6,3,0.7c1.3,0.1,2.6,0,3.6-0.8c0.7,0.3,0.8,0.9,1.7,1.5
		C56.9,17.2,56.1,18.3,55.5,19.1z M58.4,19.3c-0.2,0.2-0.3,0.2-0.7,0.2c0.1-0.9,0.5-1.8,0.8-2.7c0.1-0.4,0.1-0.9,0-1.4
		c0.1-0.5,0.5-0.3,0.7,0c0.2,1.3-0.2,2.5-0.7,3.6C58.4,19.2,58.4,19.2,58.4,19.3z"/>
</g>
</svg>
