<?xml version="1.0" encoding="UTF-8"?> <!-- Generator: Adobe Illustrator 24.0.1, SVG Export Plug-In . SVG Version: 6.00 Build 0) --> <svg xmlns="http://www.w3.org/2000/svg" xmlns:xlink="http://www.w3.org/1999/xlink" id="Layer_1" x="0px" y="0px" viewBox="0 0 238.7 389.6" style="enable-background:new 0 0 238.7 389.6;" xml:space="preserve"> <style type="text/css"> .st0{fill-rule:evenodd;clip-rule:evenodd;} </style> <g> <g> <g> <polygon points="0.1,311.4 7.7,311.4 7.7,326.6 21.8,311.4 31,311.4 16.9,326.1 31.7,346.1 22.5,346.1 11.7,331.3 7.7,335.5 7.7,346.1 0.1,346.1 "></polygon> <rect x="56.5" y="311.4" width="7.6" height="34.7"></rect> <path d="M91.1,328.8v-0.1c0-9.9,7.8-18,18.5-18c10.7,0,18.4,8,18.4,17.9v0.1c0,9.9-7.8,18-18.5,18 C98.8,346.7,91.1,338.7,91.1,328.8 M120.1,328.8v-0.1c0-6-4.4-10.9-10.5-10.9c-6.2,0-10.4,4.9-10.4,10.8v0.1 c0,6,4.4,10.9,10.5,10.9C115.8,339.7,120.1,334.8,120.1,328.8"></path> <path d="M152.1,341l4.5-5.4c3.1,2.6,6.4,4.2,10.4,4.2c3.1,0,5-1.2,5-3.3v-0.1c0-1.9-1.2-2.9-7-4.4c-7-1.8-11.5-3.7-11.5-10.6 v-0.1c0-6.3,5.1-10.5,12.2-10.5c5.1,0,9.4,1.6,12.9,4.4l-4,5.8c-3.1-2.1-6.1-3.4-9-3.4c-2.9,0-4.5,1.3-4.5,3v0.1 c0,2.3,1.5,3,7.5,4.6c7,1.8,11,4.4,11,10.4v0.1c0,6.9-5.3,10.8-12.8,10.8C161.6,346.6,156.3,344.8,152.1,341"></path> <polygon points="206.1,311.4 213.7,311.4 213.7,326.6 227.8,311.4 237.1,311.4 222.9,326.1 237.7,346.1 228.5,346.1 217.8,331.3 213.7,335.5 213.7,346.1 206.1,346.1 "></polygon> </g> <g> <path d="M0,377.4h5.1c1.4,0,2.4,0.4,3.1,1.1c0.5,0.5,0.8,1.1,0.8,1.9v0c0,1.6-1,2.4-1.9,2.8c1.4,0.4,2.6,1.3,2.6,2.9v0 c0,2.1-1.7,3.3-4.3,3.3H0V377.4z M7.7,380.6c0-1.2-0.9-2-2.7-2H1.4v4.1h3.5C6.5,382.8,7.7,382,7.7,380.6L7.7,380.6z M5.1,384H1.4 v4.2h4c1.8,0,2.9-0.8,2.9-2.1v0C8.3,384.7,7.2,384,5.1,384"></path> <path d="M32.7,384.4v-7h1.4v6.9c0,2.6,1.4,4,3.7,4c2.2,0,3.6-1.3,3.6-4v-7h1.4v6.9c0,3.5-2,5.3-5,5.3 C34.7,389.6,32.7,387.8,32.7,384.4"></path> <path d="M66.4,377.4h4.2c3.8,0,6.4,2.6,6.4,6v0c0,3.4-2.6,6-6.4,6h-4.2V377.4z M67.8,378.7v9.5h2.8c3,0,5-2.1,5-4.7v0 c0-2.6-1.9-4.7-5-4.7H67.8z"></path> <path d="M104,377.3h1.3l5.5,12.1h-1.5l-1.4-3.2h-6.5l-1.4,3.2h-1.4L104,377.3z M107.3,385l-2.7-6.1l-2.7,6.1H107.3z"></path> <path d="M133.6,377.4h4.5c2.7,0,4.5,1.4,4.5,3.8v0c0,2.6-2.2,3.9-4.7,3.9h-2.9v4.2h-1.4V377.4z M137.9,383.9c2,0,3.3-1.1,3.3-2.6 v0c0-1.7-1.3-2.6-3.2-2.6h-3v5.3H137.9z"></path> <polygon points="165.5,377.4 174.2,377.4 174.2,378.7 166.9,378.7 166.9,382.7 173.4,382.7 173.4,384 166.9,384 166.9,388.2 174.3,388.2 174.3,389.4 165.5,389.4 "></polygon> <path d="M196.7,387.6l0.8-1c1.3,1.1,2.4,1.7,4.1,1.7c1.6,0,2.7-0.9,2.7-2v0c0-1.1-0.6-1.7-3.1-2.3c-2.8-0.6-4-1.5-4-3.5v0 c0-1.9,1.7-3.3,3.9-3.3c1.7,0,3,0.5,4.2,1.5l-0.8,1c-1.1-0.9-2.2-1.3-3.5-1.3c-1.6,0-2.5,0.9-2.5,1.9v0c0,1.1,0.6,1.8,3.3,2.3 c2.7,0.6,3.9,1.6,3.9,3.4v0c0,2.1-1.7,3.4-4.1,3.4C199.7,389.6,198.2,388.9,196.7,387.6"></path> <polygon points="231.9,378.7 227.9,378.7 227.9,377.4 237.3,377.4 237.3,378.7 233.3,378.7 233.3,389.4 231.9,389.4 "></polygon> </g> <polyline points="0,360.9 237.4,360.9 237.4,362.3 0,362.3 "></polyline> </g> <g> <path class="st0" d="M233.8,211.4c-3.2-3.6-60.4-60.2-66.1-66.1c-5.7-5.9-2.3-9.6,0.9-13.1c3.2-3.4,53-53.5,60.6-60.6 c7.6-7.2,9.3-11.1,9.3-17.1s0-34.2,0-40.7c0-6.5-4.2-8.6-9.5-8.6c-5.3,0-23.6-0.3-36.5-0.3c-12.9,0-14.9,3.9-19.7,8.6 c-4.7,4.7-71.1,70.7-81.2,81.1c-10.1,10.3-10.2,0.4-10.2-3.3c0-3.7,0.2-38.5,0-46.3s-1.3-9.2-5.2-13.6C72.4,27,55.9,11.3,48.9,4.3 c-7-7-10.8-3.9-13.8-1.3C32.1,5.6,13.5,23.9,7.4,30C1.3,36.2,0.9,40,0.9,45.7C0.9,51.4,1,224.2,1,231.4c0,7.2,2,10.8,6.3,15 c4.2,4.2,18.5,18.4,26.2,26.1s12.1,3.3,15.3,0.1c3.2-3.2,21-21.2,26.7-26.9c5.8-5.8,5.9-10.6,5.9-15.5c0,0,0-32.9,0-43.9 c0-11.1,6.6-6,10.1-2.5c3.5,3.5,77.2,77.2,82.1,82.1c5,5,9.1,7.6,15.1,7.6s25.4,0,37.1,0s12.8-3.6,12.8-11.2 c0-7.6-0.1-27.6,0-36.1C238.8,217.6,236.9,215,233.8,211.4z M217.6,73.7c-0.4,0.4-1.1,1.1-2.1,2.1l0,0c0,0-0.4,0.4-1.3,1.2 c-6.3,6.3-50.8,50.4-52.1,51.6c-3.7,3.7-7.6,3.8-11.9-0.5c-4.3-4.3-8.3-8.3-10-10.3c-1.7-2.1-3.3-6.2,0.4-10.1 c2.2-2.3,36.9-37.1,37.7-37.9c2.8-2.8,5.4-5.8,12.8-5.9c7.4-0.1,22.8,0,25.4,0.2C219.3,64.4,225.3,66.3,217.6,73.7z M186.6,20.3 c0-2.7,0.5-8.5,8.8-8.5c8.3,0,24.9,0.2,28.9,0.2c4,0,7.5,2,7.5,7.3c0,5.3,0.2,28.4,0.2,28.4c0,7.5-2.4,9.5-10.3,9.5 c-7.9,0-20.1-0.1-26.4-0.1c-6.3,0-8.7-2.9-8.7-8.5S186.6,22.9,186.6,20.3z M7.7,219.3c0-6.8-0.1-167.5-0.1-171.4 s-0.3-7.9,4.9-13.3s16.1-16.1,18.1-17.8c2-1.7,7.6-4.6,7.4,6.1c-0.2,10.7,0,163.2,0,167.4c0,4.1,0.2,9.6-4.4,14.1 c-4.5,4.5-16.4,16.4-18.8,18.6C12.6,225.2,7.7,226,7.7,219.3z M67.9,243.6c-3.8,3.8-19.9,20.3-19.9,20.3c-5.3,5.3-8.5,5-14-0.5 c-5.6-5.6-14.2-14.3-18.6-18.8c-4.5-4.5-4.1-8.2-0.1-12.2c4-4,18.2-18.2,20-20c1.9-1.9,6.4-5.7,12.3,0.2 c5.9,5.9,17.5,17.8,20.3,20.6C70.6,235.9,71.6,239.8,67.9,243.6z M216.8,266.4c-3.3,0.1-20,0.1-26.4,0.1c-6.4,0-10.1-4-13.1-6.9 c-2.1-2.1-91.6-91.3-92.2-92c-7.5-7.4-9.8-0.2-9.8,0.8l0,0c0,26.8,0,48.1,0,50.5c0,6.8-4.9,6-7.3,3.7S53.7,208.6,49.2,204 c-4.5-4.5-4.4-10-4.4-14.1c0-4.1,0.2-156.7,0-167.4c-0.2-10.7,5.4-7.8,7.4-6.1c2,1.7,12.9,12.5,18.1,17.8 c5.2,5.3,4.9,9.3,4.9,13.3c0,1.6,0,63.9,0,64c0.1,1.3,1.1,4,3,6.2c1.7,1.9,138.6,138.5,141,140.9 C224.2,263.5,220.1,266.4,216.8,266.4z M231.8,251.5c-0.2,2.6-2.1,8.7-9.6,1c-6-6.1-75.8-75.8-105.3-105.3l0,0 c-0.9-0.9-2.4-2.4-4.2-4.3c-5.1-5.1-8.3-8.3-8.8-8.8c-0.9-0.9-1.9-1.9-2.9-3c-6.2-6.2-11.9-12-12.9-13c-2-2-4.1-6.1,1.2-11.4 c4.9-4.9,39.2-39.1,44.9-44.8c18.3-18.3,33.1-33.1,35.7-35.8c7.5-7.7,9.4-1.7,9.6,1c0.2,2.6,0.3,18,0.2,25.4 c-0.1,7.4-3.1,10.1-5.9,12.8c-0.6,0.6-7.1,7.1-16.8,16.8l0,0c0,0,0,0-0.1,0.1c-2.1,2.1-4.4,4.4-6.8,6.8c-0.1,0.1-0.1,0.1-0.2,0.2 c-6.3,6.2-14.7,14.6-17,16.8c-3.4,3.4-5.7,7.6-2.3,11.9c35.1,35,93.5,93.4,95.5,95.4c2.8,2.8,5.8,5.4,5.9,12.8 S232,248.8,231.8,251.5z"></path> </g> </g> </svg> 